<svg width="846" height="1615" viewBox="0 0 846 1615" fill="none" xmlns="http://www.w3.org/2000/svg">
<path fill-rule="evenodd" clip-rule="evenodd" d="M121.188 230.005C144.678 201.195 167.178 180.395 183.048 166.985L185.11 166.99C234.373 127.229 306.09 79.2817 400.798 44.8643C594.638 -25.5857 766.998 3.44421 844.798 21.8643L845.798 169.864L845.394 169.864L843.798 648.965L842.598 1614.86C829.538 1608.82 812.578 1598.28 802.718 1579.64C795.651 1566.31 795.036 1554.58 794.446 1543.36C793.846 1531.93 793.273 1521.01 785.948 1509.43C779.508 1499.26 766.318 1487.05 736.038 1481.2C717.248 1476.18 680.018 1463.25 651.208 1428.81C637.758 1412.73 628.448 1394.73 621.398 1372.59C604.728 1320.28 611.702 1279.6 617.712 1244.54C622.45 1216.9 626.59 1192.75 618.078 1169.14C605.158 1133.31 561.508 1094.35 430.388 1076.32C414.498 1071.69 391.998 1064.72 365.458 1055.06L365.41 1055.05C328.717 1041.69 270.755 1020.58 217.678 987.425C188.368 969.115 129.528 927.765 82.0976 860.705C3.50757 749.595 0.587585 630.625 0.0275879 580.335C-0.342407 548.035 1.26764 377.125 121.188 230.005Z" fill="#8DCAB3" fill-opacity="0.5"/>
</svg>
